HIERARCHY
ROOT Hips
{
	OFFSET 0.000000 71.427986 0.000000
	CHANNELS 6 Xposition Yposition Zposition Xrotation Yrotation Zrotation
	JOINT Pelvis
	{
		OFFSET 0.000000 0.000000 0.000000
		CHANNELS 3 Xrotation Yrotation Zrotation
		JOINT LeftUpLeg
		{
			OFFSET 6.797100 -2.508499 -1.318700
			CHANNELS 3 Xrotation Yrotation Zrotation
			JOINT LeftLeg
			{
				OFFSET 0.069008 -29.241863 0.690200
				CHANNELS 3 Xrotation Yrotation Zrotation
				JOINT LeftFoot
				{
					OFFSET -0.069008 -29.568123 -0.266800
					CHANNELS 3 Xrotation Yrotation Zrotation
					JOINT LeftToeBase
					{
						OFFSET 3.145500 -8.631000 16.059900
						CHANNELS 3 Xrotation Yrotation Zrotation
						End Site
						{
							OFFSET 0.000000 18.501587 0.000000
						}
					}
				}
			}
			JOINT Left_ShortSleeve
			{
				OFFSET 0.265923 -10.480953 1.153800
				CHANNELS 3 Xrotation Yrotation Zrotation
				End Site
				{
					OFFSET 1.725763 19.823879 0.000000
				}
			}
		}
		JOINT RightUpLeg
		{
			OFFSET -6.797100 -2.508499 -1.318700
			CHANNELS 3 Xrotation Yrotation Zrotation
			JOINT RightLeg
			{
				OFFSET -0.082453 -29.241932 0.688000
				CHANNELS 3 Xrotation Yrotation Zrotation
				JOINT RightFoot
				{
					OFFSET 0.082453 -29.568058 -0.264600
					CHANNELS 3 Xrotation Yrotation Zrotation
					JOINT RightToeBase
					{
						OFFSET -3.115300 -8.682800 16.113400
						CHANNELS 3 Xrotation Yrotation Zrotation
						End Site
						{
							OFFSET 0.000000 18.567114 0.000000
						}
					}
				}
			}
			JOINT Right_ShortSleeve
			{
				OFFSET -0.265923 -10.480953 1.153800
				CHANNELS 3 Xrotation Yrotation Zrotation
				End Site
				{
					OFFSET -1.725766 19.823910 0.000000
				}
			}
		}
	}
	JOINT Spine
	{
		OFFSET 0.000000 13.368103 0.470500
		CHANNELS 3 Xrotation Yrotation Zrotation
		JOINT Spine1
		{
			OFFSET 0.147000 13.837402 0.538800
			CHANNELS 3 Xrotation Yrotation Zrotation
			JOINT Spine2
			{
				OFFSET 0.168000 16.242897 -1.435500
				CHANNELS 3 Xrotation Yrotation Zrotation
				JOINT Neck
				{
					OFFSET 0.217200 18.631500 -1.679100
					CHANNELS 3 Xrotation Yrotation Zrotation
					JOINT Head
					{
						OFFSET 0.000000 6.599396 1.385900
						CHANNELS 3 Xrotation Yrotation Zrotation
						JOINT Hat
						{
							OFFSET -0.532200 27.220596 -10.096100
							CHANNELS 3 Xrotation Yrotation Zrotation
							End Site
							{
								OFFSET 0.000000 22.029861 0.000000
							}
						}
						JOINT HairD
						{
							OFFSET -10.777400 17.437393 -1.325900
							CHANNELS 3 Xrotation Yrotation Zrotation
							JOINT HairD1
							{
								OFFSET -3.290299 -11.051193 1.062200
								CHANNELS 3 Xrotation Yrotation Zrotation
								End Site
								{
									OFFSET 0.000000 11.579437 0.000000
								}
							}
						}
						JOINT HairB
						{
							OFFSET -10.777400 17.437393 1.467900
							CHANNELS 3 Xrotation Yrotation Zrotation
							JOINT HairB1
							{
								OFFSET -1.561200 -12.956299 3.590200
								CHANNELS 3 Xrotation Yrotation Zrotation
								End Site
								{
									OFFSET 0.000000 13.534866 0.000000
								}
							}
						}
						JOINT HairA
						{
							OFFSET 9.713100 17.437393 1.467900
							CHANNELS 3 Xrotation Yrotation Zrotation
							JOINT HairA1
							{
								OFFSET 1.561200 -12.956299 3.590200
								CHANNELS 3 Xrotation Yrotation Zrotation
								End Site
								{
									OFFSET 0.000000 13.534866 0.000000
								}
							}
						}
						JOINT HairC
						{
							OFFSET 9.713100 17.437393 -1.325900
							CHANNELS 3 Xrotation Yrotation Zrotation
							JOINT HairC1
							{
								OFFSET 3.290300 -11.051193 1.062200
								CHANNELS 3 Xrotation Yrotation Zrotation
								End Site
								{
									OFFSET 0.000000 11.579437 0.000000
								}
							}
						}
					}
				}
				JOINT LeftShoulder
				{
					OFFSET 5.101800 15.108002 -2.763700
					CHANNELS 3 Xrotation Yrotation Zrotation
					JOINT LeftArm
					{
						OFFSET 9.825497 2.506317 -1.597400
						CHANNELS 3 Xrotation Yrotation Zrotation
						JOINT LeftForeArm
						{
							OFFSET 21.966244 0.000000 0.000000
							CHANNELS 3 Xrotation Yrotation Zrotation
							JOINT LeftHand
							{
								OFFSET 33.879036 0.000000 0.000000
								CHANNELS 3 Xrotation Yrotation Zrotation
								JOINT LeftHandThumb1
								{
									OFFSET 6.715286 -2.359680 3.363841
									CHANNELS 3 Xrotation Yrotation Zrotation
									JOINT LeftHandThumb2
									{
										OFFSET 2.507072 -1.447464 1.447461
										CHANNELS 3 Xrotation Yrotation Zrotation
										JOINT LeftHandThumb3
										{
											OFFSET 2.898338 -1.673355 1.673357
											CHANNELS 3 Xrotation Yrotation Zrotation
											End Site
											{
												OFFSET -0.295959 3.727692 -0.131651
											}
										}
									}
								}
								JOINT LeftHandIndex1
								{
									OFFSET 14.190811 -0.254547 3.840278
									CHANNELS 3 Xrotation Yrotation Zrotation
									JOINT LeftHandIndex2
									{
										OFFSET 3.551727 0.000000 -0.000000
										CHANNELS 3 Xrotation Yrotation Zrotation
										JOINT LeftHandIndex3
										{
											OFFSET 2.894196 0.000000 0.000000
											CHANNELS 3 Xrotation Yrotation Zrotation
											End Site
											{
												OFFSET -1.000603 2.690872 0.366626
											}
										}
									}
								}
								JOINT LeftHandMiddle1
								{
									OFFSET 13.776489 0.000000 0.000000
									CHANNELS 3 Xrotation Yrotation Zrotation
									JOINT LeftHandMiddle2
									{
										OFFSET 3.438232 0.000000 0.000000
										CHANNELS 3 Xrotation Yrotation Zrotation
										JOINT LeftHandMiddle3
										{
											OFFSET 3.691551 0.000000 0.000000
											CHANNELS 3 Xrotation Yrotation Zrotation
											End Site
											{
												OFFSET -1.082298 3.499527 0.457670
											}
										}
									}
								}
								JOINT LeftHandRing1
								{
									OFFSET 13.966164 -0.268127 -3.067488
									CHANNELS 3 Xrotation Yrotation Zrotation
									JOINT LeftHandRing2
									{
										OFFSET 3.162567 0.000000 0.000000
										CHANNELS 3 Xrotation Yrotation Zrotation
										JOINT LeftHandRing3
										{
											OFFSET 3.324348 0.000000 0.000000
											CHANNELS 3 Xrotation Yrotation Zrotation
											End Site
											{
												OFFSET -0.861900 3.184998 0.405154
											}
										}
									}
								}
								JOINT LeftHandPinky1
								{
									OFFSET 13.131393 -0.168503 -5.746925
									CHANNELS 3 Xrotation Yrotation Zrotation
									JOINT LeftHandPinky2
									{
										OFFSET 2.849182 0.000000 0.000000
										CHANNELS 3 Xrotation Yrotation Zrotation
										JOINT LeftHandPinky3
										{
											OFFSET 2.805038 0.000000 0.000000
											CHANNELS 3 Xrotation Yrotation Zrotation
											End Site
											{
												OFFSET -0.882500 2.642609 0.325652
											}
										}
									}
								}
							}
							JOINT Left_Sleeve
							{
								OFFSET 6.592125 -0.646545 0.805568
								CHANNELS 3 Xrotation Yrotation Zrotation
								End Site
								{
									OFFSET -0.000179 20.275787 -0.000000
								}
							}
						}
					}
				}
				JOINT RightShoulder
				{
					OFFSET -5.731700 15.108002 -2.763700
					CHANNELS 3 Xrotation Yrotation Zrotation
					JOINT RightArm
					{
						OFFSET -9.825497 2.506317 -1.597400
						CHANNELS 3 Xrotation Yrotation Zrotation
						JOINT RightForeArm
						{
							OFFSET -21.966242 0.000000 0.000000
							CHANNELS 3 Xrotation Yrotation Zrotation
							JOINT RightHand
							{
								OFFSET -33.879032 0.000000 0.000000
								CHANNELS 3 Xrotation Yrotation Zrotation
								JOINT RightHandThumb1
								{
									OFFSET -6.715286 -2.359680 3.363841
									CHANNELS 3 Xrotation Yrotation Zrotation
									JOINT RightHandThumb2
									{
										OFFSET -2.507072 -1.447464 1.447461
										CHANNELS 3 Xrotation Yrotation Zrotation
										JOINT RightHandThumb3
										{
											OFFSET -2.898338 -1.673355 1.673357
											CHANNELS 3 Xrotation Yrotation Zrotation
											End Site
											{
												OFFSET 0.295959 3.727692 -0.131651
											}
										}
									}
								}
								JOINT RightHandIndex1
								{
									OFFSET -14.190811 -0.254547 3.840278
									CHANNELS 3 Xrotation Yrotation Zrotation
									JOINT RightHandIndex2
									{
										OFFSET -3.551727 0.000000 -0.000000
										CHANNELS 3 Xrotation Yrotation Zrotation
										JOINT RightHandIndex3
										{
											OFFSET -2.894196 0.000000 0.000000
											CHANNELS 3 Xrotation Yrotation Zrotation
											End Site
											{
												OFFSET 1.000603 2.690872 0.366626
											}
										}
									}
								}
								JOINT RightHandMiddle1
								{
									OFFSET -13.776489 0.000000 0.000000
									CHANNELS 3 Xrotation Yrotation Zrotation
									JOINT RightHandMiddle2
									{
										OFFSET -3.438232 0.000000 0.000000
										CHANNELS 3 Xrotation Yrotation Zrotation
										JOINT RightHandMiddle3
										{
											OFFSET -3.691551 0.000000 0.000000
											CHANNELS 3 Xrotation Yrotation Zrotation
											End Site
											{
												OFFSET 1.082298 3.499527 0.457670
											}
										}
									}
								}
								JOINT RightHandRing1
								{
									OFFSET -13.966164 -0.268127 -3.067488
									CHANNELS 3 Xrotation Yrotation Zrotation
									JOINT RightHandRing2
									{
										OFFSET -3.162567 0.000000 0.000000
										CHANNELS 3 Xrotation Yrotation Zrotation
										JOINT RightHandRing3
										{
											OFFSET -3.324348 0.000000 0.000000
											CHANNELS 3 Xrotation Yrotation Zrotation
											End Site
											{
												OFFSET 0.861900 3.184998 0.405154
											}
										}
									}
								}
								JOINT RightHandPinky1
								{
									OFFSET -13.131393 -0.168503 -5.746925
									CHANNELS 3 Xrotation Yrotation Zrotation
									JOINT RightHandPinky2
									{
										OFFSET -2.849182 0.000000 0.000000
										CHANNELS 3 Xrotation Yrotation Zrotation
										JOINT RightHandPinky3
										{
											OFFSET -2.805038 0.000000 0.000000
											CHANNELS 3 Xrotation Yrotation Zrotation
											End Site
											{
												OFFSET 0.882500 2.642609 0.325652
											}
										}
									}
								}
							}
							JOINT Right_Sleeve
							{
								OFFSET -6.592125 -0.646545 0.805568
								CHANNELS 3 Xrotation Yrotation Zrotation
								End Site
								{
									OFFSET 0.000179 20.275787 -0.000000
								}
							}
						}
					}
				}
				JOINT Bind_Right_JacketString
				{
					OFFSET -3.534800 11.969597 7.200700
					CHANNELS 3 Xrotation Yrotation Zrotation
					JOINT Bind_Right_JacketString1
					{
						OFFSET -0.319900 -6.102600 2.794100
						CHANNELS 3 Xrotation Yrotation Zrotation
						End Site
						{
							OFFSET 0.000000 6.719452 0.000000
						}
					}
				}
				JOINT Bind_Left_JacketString
				{
					OFFSET 2.904800 11.969597 7.200700
					CHANNELS 3 Xrotation Yrotation Zrotation
					JOINT Bind_Left_JacketString1
					{
						OFFSET 0.364800 -5.904503 3.186800
						CHANNELS 3 Xrotation Yrotation Zrotation
						End Site
						{
							OFFSET 0.000000 6.719513 0.000000
						}
					}
				}
				JOINT HairE
				{
					OFFSET 5.915200 17.612701 -11.592200
					CHANNELS 3 Xrotation Yrotation Zrotation
					JOINT HairE1
					{
						OFFSET 0.289200 -7.171898 -1.284500
						CHANNELS 3 Xrotation Yrotation Zrotation
						End Site
						{
							OFFSET 0.000000 7.291756 0.000000
						}
					}
				}
				JOINT HairF
				{
					OFFSET -0.864800 17.612701 -11.592200
					CHANNELS 3 Xrotation Yrotation Zrotation
					JOINT HairF1
					{
						OFFSET 0.000000 -14.087097 -2.127501
						CHANNELS 3 Xrotation Yrotation Zrotation
						End Site
						{
							OFFSET 0.000000 14.246841 0.000000
						}
					}
				}
				JOINT HairG
				{
					OFFSET -8.087700 17.612701 -11.592200
					CHANNELS 3 Xrotation Yrotation Zrotation
					JOINT HairG1
					{
						OFFSET -0.293600 -6.081398 -0.910100
						CHANNELS 3 Xrotation Yrotation Zrotation
						End Site
						{
							OFFSET 0.000000 6.156120 0.000000
						}
					}
				}
			}
		}
	}
	JOINT Pouch
	{
		OFFSET 0.000000 4.394501 10.847300
		CHANNELS 3 Xrotation Yrotation Zrotation
		End Site
		{
			OFFSET 0.000000 21.880577 0.000000
		}
	}
	JOINT Bag
	{
		OFFSET -13.229000 4.813004 -0.593300
		CHANNELS 3 Xrotation Yrotation Zrotation
		End Site
		{
			OFFSET 0.000000 21.880577 0.000000
		}
	}
	JOINT OccupyGuyFacialAnim_Joint
	{
		OFFSET 1.000000 -70.206398 -1.655000
		CHANNELS 3 Xrotation Yrotation Zrotation
		End Site
		{
			OFFSET 0.000000 21.880577 0.000000
		}
	}
}
MOTION
Frames: 4
Frame Time: 0.033333
0.178443 39.000648 1.039701 -12.017241 0.072553 -1.106925 -0.000001 -0.000000 -0.000000 -83.056644 -2.195611 11.424142 88.594363 -7.680726 -3.939183 6.508034 0.119762 2.970837 -0.000000 0.000000 -0.000000 0.000000 -0.000000 0.000000 -83.264049 -3.734596 -7.889346 91.953648 -10.081860 0.750777 2.094513 -2.593266 -4.533553 -0.000000 -0.000002 -0.000000 -0.000000 0.000000 -0.000000 22.525757 1.689407 -4.478832 3.100986 0.679031 -0.398439 3.098998 0.629999 -0.564721 4.887449 -0.879744 0.282147 -7.056686 -2.261987 8.130102 0.000000 0.000000 -0.000000 0.000000 0.000000 -0.000000 0.000000 0.000000 -0.000000 0.000000 0.000000 -0.000000 0.000000 0.000000 0.000000 0.000000 0.000000 -0.000000 0.000000 0.000000 0.000000 0.000000 0.000000 -0.000000 0.000000 0.000000 -0.000000 0.556508 -14.381204 -10.460343 -30.457043 -35.031272 -45.332263 -0.000026 -57.990526 -0.000037 33.012288 4.298416 18.252852 -2.869749 7.721040 -0.357007 7.452151 19.674269 -9.205303 -0.000001 -0.000000 0.000001 1.079472 6.688805 -16.030895 0.972796 3.234609 -33.469167 0.000001 -0.000001 0.000001 0.420741 6.990739 -4.428240 0.800379 2.957726 -30.277764 0.000001 -0.000000 0.000002 -0.001796 11.123734 0.881403 0.322890 1.919806 -19.092436 0.000001 0.000000 -0.000003 2.385861 15.605671 -9.778276 0.555777 2.492517 -25.136539 0.000000 0.000001 -0.000001 0.000002 -0.000001 -0.000002 -0.255677 17.655074 16.366451 -29.165229 34.755640 35.691587 -0.000003 51.785285 -0.000009 29.087074 3.373678 -33.334294 -15.670382 -9.890583 4.665108 7.881769 -17.971891 -1.055973 0.000001 -0.000001 0.000001 0.359053 -5.642779 5.551786 0.291373 -1.623001 20.354078 -0.000001 0.000000 0.000000 0.143873 -3.330379 18.622210 0.161279 -1.216255 15.106676 -0.000001 -0.000002 -0.000001 -0.672633 -0.775595 17.945407 0.061336 -0.754180 9.299406 -0.000001 -0.000002 0.000001 3.090871 -15.976176 12.582600 0.435979 -1.969183 24.965006 -0.000004 0.000001 -0.000001 0.000001 0.000000 -0.000001 -0.000000 0.000000 0.000000 -0.000000 0.000000 -0.000000 -0.000000 0.000000 0.000000 -0.000000 0.000000 0.000000 -0.000000 0.000000 0.000000 -0.000000 0.000000 -0.000000 -0.000000 0.000000 0.000000 -0.000000 0.000000 0.000000 -0.000000 0.000000 0.000000 -0.000000 0.000000 -0.000000 -0.000001 -0.000000 -0.000000 -0.000001 -0.000000 -0.000000 -0.000001 -0.000000 -0.000000 
0.180962 38.983704 1.035758 -12.114696 0.048178 -1.077683 0.000001 -0.000000 0.000000 -82.979012 -2.185132 11.418148 88.617784 -7.660000 -3.930893 6.526369 0.119464 2.945366 0.000000 -0.000000 -0.000000 0.000000 -0.000000 0.000000 -83.212010 -3.722744 -7.884392 91.989917 -10.081026 0.747833 2.092797 -2.580401 -4.560948 0.000000 0.000002 0.000000 -0.000000 0.000001 -0.000000 22.479302 1.497077 -4.410390 3.097733 0.629429 -0.401459 3.095667 0.587702 -0.562197 4.874272 -0.907393 0.269637 -6.246858 -2.488790 7.995190 0.000001 -0.000000 -0.000000 0.000001 -0.000000 -0.000000 0.000001 -0.000000 -0.000000 0.000001 -0.000000 -0.000000 -0.000000 -0.000000 -0.000000 0.000001 -0.000000 -0.000000 -0.000000 -0.000000 -0.000000 0.000001 -0.000000 -0.000000 0.000001 -0.000000 -0.000000 0.587072 -14.053608 -10.202079 -30.629737 -34.964333 -45.705123 0.000021 -57.738827 0.000026 32.907425 4.181889 18.419728 -2.889799 7.718071 -0.323034 7.449929 19.671988 -9.206044 0.000002 -0.000000 -0.000000 1.108758 6.746406 -16.269859 0.965205 3.223131 -33.334359 0.000004 0.000000 -0.000004 0.434111 7.058462 -4.531485 0.795006 2.948527 -30.173443 -0.000003 -0.000001 0.000002 0.033454 11.188693 0.651766 0.320600 1.913195 -19.024102 -0.000000 0.000000 0.000002 2.414245 15.491948 -10.010274 0.555164 2.491209 -25.122419 0.000001 0.000000 0.000001 -0.000001 0.000001 0.000000 -0.319697 18.015741 16.695369 -28.776065 36.200552 35.270188 0.000015 53.328205 -0.000009 28.102641 4.139189 -31.968861 -15.756727 -9.883787 4.511200 7.877275 -17.961217 -1.059234 -0.000001 0.000000 -0.000000 0.445394 -6.639529 5.322063 0.281499 -1.596144 20.002614 0.000002 -0.000000 0.000002 0.095570 -3.255570 20.475835 0.186651 -1.306585 16.259057 0.000000 -0.000003 -0.000001 -0.977814 -0.245100 19.862416 0.088747 -0.905836 11.191641 0.000001 -0.000000 -0.000001 3.049094 -15.314783 13.111940 0.458571 -2.016998 25.614869 -0.000002 0.000000 -0.000003 -0.000003 0.000001 -0.000002 0.000002 0.000000 -0.000000 0.000002 -0.000000 -0.000000 0.000002 0.000000 -0.000000 0.000002 0.000000 -0.000000 0.000002 0.000000 -0.000000 0.000002 -0.000000 -0.000001 0.000002 0.000000 -0.000000 0.000002 0.000000 -0.000000 0.000002 0.000000 -0.000000 0.000002 -0.000000 -0.000001 0.000001 -0.000000 0.000000 0.000001 -0.000000 0.000000 0.000001 -0.000000 0.000000 
0.197087 38.978745 1.034686 -12.125083 0.011643 -1.074168 0.000000 -0.000000 0.000000 -82.976225 -2.183427 11.405291 88.639142 -7.604559 -3.927098 6.513300 0.120395 2.940754 -0.000000 -0.000000 0.000000 0.000000 0.000000 0.000001 -83.216224 -3.705240 -7.882606 91.991392 -10.073781 0.742187 2.104538 -2.577434 -4.547990 0.000000 0.000001 0.000000 -0.000000 -0.000000 -0.000000 22.439284 1.418511 -4.357343 3.096746 0.609187 -0.402316 3.094660 0.571245 -0.559232 4.867582 -0.948657 0.268555 -5.757875 -2.845927 7.880623 0.000002 -0.000000 0.000000 0.000002 -0.000000 0.000000 0.000002 -0.000000 0.000000 0.000002 -0.000000 0.000000 0.000001 0.000000 0.000000 0.000002 -0.000000 0.000000 0.000001 0.000000 0.000000 0.000002 -0.000000 0.000000 0.000002 -0.000000 0.000000 0.603673 -13.871127 -10.048842 -30.723458 -34.980230 -45.936588 -0.000008 -57.565777 -0.000007 32.820504 4.117067 18.557911 -2.909844 7.715013 -0.289105 7.448696 19.671157 -9.206546 0.000001 0.000002 0.000000 1.135723 6.798639 -16.487138 0.957195 3.210904 -33.191499 0.000003 -0.000001 -0.000006 0.451969 7.105958 -4.716281 0.790543 2.940842 -30.086625 0.000003 0.000000 -0.000001 0.081148 11.270002 0.345009 0.320356 1.912500 -19.017086 0.000001 0.000000 -0.000001 2.443932 15.332212 -10.295733 0.561106 2.503841 -25.258707 0.000001 -0.000001 0.000003 0.000003 -0.000000 -0.000001 -0.372970 18.394861 16.909052 -28.199281 38.074039 34.582279 -0.000009 53.920245 0.000013 26.981610 3.443570 -29.672363 -15.837020 -9.877220 4.367689 7.872770 -17.950536 -1.062511 -0.000003 -0.000001 -0.000000 1.030235 -7.749997 10.872616 0.293024 -1.627449 20.412574 -0.000001 -0.000001 -0.000002 0.172151 -3.699789 28.688263 0.251994 -1.512675 18.915164 0.000001 -0.000000 0.000001 -1.618016 0.160191 25.637953 0.136117 -1.118888 13.871941 -0.000000 0.000001 0.000000 3.142719 -14.024861 15.205159 0.484646 -2.070448 26.345862 -0.000000 0.000001 0.000001 0.000003 -0.000000 0.000001 0.000002 0.000000 -0.000000 0.000002 0.000000 -0.000000 0.000002 0.000000 -0.000000 0.000002 0.000000 -0.000000 0.000002 0.000000 -0.000000 0.000002 0.000000 -0.000000 0.000002 0.000000 -0.000000 0.000002 0.000000 -0.000000 0.000002 0.000000 -0.000000 0.000002 0.000000 -0.000000 0.000000 -0.000000 0.000000 0.000000 -0.000000 0.000000 0.000000 -0.000000 0.000000 
0.204807 38.979393 1.024273 -12.147320 0.022467 -1.074157 -0.000001 0.000000 0.000000 -82.957360 -2.173582 11.387733 88.628514 -7.596793 -3.925956 6.515615 0.121447 2.949645 -0.000000 -0.000000 0.000000 -0.000000 0.000000 -0.000000 -83.191267 -3.692565 -7.876371 91.974562 -10.084196 0.726184 2.123508 -2.592743 -4.521679 0.000000 -0.000001 0.000000 0.000000 -0.000000 -0.000001 22.419703 1.516578 -4.317644 3.104039 0.632625 -0.389601 3.102002 0.594971 -0.545674 4.847667 -0.990558 0.287791 -5.420340 -3.269422 8.017747 0.000001 -0.000000 -0.000000 0.000001 -0.000000 -0.000000 0.000001 -0.000000 -0.000000 0.000001 -0.000000 -0.000000 -0.000001 0.000000 -0.000000 0.000001 -0.000000 -0.000000 -0.000001 0.000000 -0.000000 0.000001 -0.000000 -0.000000 0.000001 -0.000000 -0.000000 0.589176 -13.988436 -10.184606 -30.761167 -35.120283 -45.884125 0.000015 -57.298191 -0.000006 32.774922 3.979914 18.612551 -2.929863 7.711996 -0.255175 7.448378 19.671804 -9.206847 -0.000002 -0.000001 0.000000 1.154095 6.835992 -16.620792 0.950915 3.201328 -33.079238 -0.000000 0.000000 -0.000004 0.465742 7.081725 -4.932641 0.787370 2.935374 -30.024617 -0.000001 0.000000 0.000001 0.125369 11.292756 0.059611 0.321496 1.915783 -19.050724 -0.000002 0.000001 -0.000002 2.431323 15.170776 -10.389068 0.567021 2.516307 -25.394018 0.000001 -0.000001 0.000003 -0.000000 0.000002 0.000002 -0.377891 18.654649 16.817553 -27.286963 40.271625 33.583774 -0.000000 52.998962 0.000003 26.746951 2.344642 -28.446445 -15.911769 -9.870968 4.233782 7.868246 -17.939796 -1.065806 0.000002 0.000000 -0.000000 2.459293 -8.660535 23.861015 0.303541 -1.655414 20.779666 -0.000002 -0.000002 -0.000002 0.543681 -4.454258 34.927716 0.261421 -1.539882 19.268730 0.000001 -0.000000 0.000001 -1.483526 -0.698801 28.969120 0.169888 -1.247706 15.507260 -0.000002 -0.000005 -0.000002 3.200727 -13.622480 16.109860 0.484506 -2.070179 26.342102 -0.000002 0.000000 0.000001 0.000001 0.000001 -0.000001 -0.000001 -0.000000 -0.000001 -0.000001 0.000000 0.000000 -0.000001 -0.000000 -0.000001 -0.000001 -0.000000 -0.000001 -0.000001 -0.000000 -0.000001 -0.000001 0.000000 0.000000 -0.000001 -0.000000 -0.000001 -0.000001 -0.000000 -0.000001 -0.000001 -0.000000 -0.000001 -0.000001 0.000000 0.000000 -0.000001 0.000000 0.000000 -0.000001 0.000000 0.000000 -0.000001 0.000000 0.000000 
